<?xml version="1.0" standalone="no"?>
<!DOCTYPE svg PUBLIC "-//W3C//DTD SVG 20010904//EN"
 "http://www.w3.org/TR/2001/REC-SVG-20010904/DTD/svg10.dtd">
<svg version="1.0" xmlns="http://www.w3.org/2000/svg"
 width="300.000000pt" height="300.000000pt" viewBox="0 0 300.000000 300.000000"
 preserveAspectRatio="xMidYMid meet">
<metadata>
Created by potrace 1.14, written by Peter Selinger 2001-2017
</metadata>
<g transform="translate(0.000000,300.000000) scale(0.100000,-0.100000)"
fill="#000000" stroke="none">
<path d="M1433 2828 c-22 -29 -139 -192 -260 -363 -121 -170 -352 -497 -514
-725 l-294 -415 -1 -320 c0 -176 2 -328 4 -337 4 -17 38 -18 528 -18 l524 0 2
-257 3 -258 370 0 370 0 3 257 2 257 128 3 127 3 3 372 2 373 -130 0 -130 0 0
261 0 261 216 296 215 297 -120 3 c-128 3 -137 7 -103 46 40 44 220 304 215
310 -3 3 -256 5 -563 6 l-557 0 -40 -52z m983 -53 c-2 -7 -55 -81 -116 -165
-61 -84 -114 -159 -117 -166 -4 -11 17 -14 116 -14 67 0 121 -2 121 -6 0 -3
-76 -110 -170 -238 l-170 -233 0 -322 0 -321 130 0 130 0 0 -285 0 -285 -130
0 -130 0 0 -255 0 -255 -282 2 c-243 3 -283 5 -284 18 -1 8 -2 122 -3 252 l-1
238 -527 2 -528 3 0 275 0 275 235 330 c130 182 304 427 388 545 84 118 214
303 290 410 l139 195 44 6 c24 4 230 7 457 7 328 0 412 -3 408 -13z"/>
<path d="M1564 2692 c-6 -4 -56 -70 -111 -147 -54 -77 -160 -225 -234 -330
-118 -165 -531 -748 -641 -904 l-38 -54 0 -209 0 -208 528 -2 527 -3 3 -257 2
-258 195 0 195 0 2 258 3 257 128 3 127 3 -2 187 -3 187 -127 3 -128 3 0 381
0 381 121 166 c67 91 124 171 126 178 4 10 -22 13 -116 13 -67 0 -121 2 -121
5 0 3 54 80 120 171 66 91 120 169 120 175 0 11 -659 13 -676 1z m36 -1022 l0
-449 -315 -3 c-223 -2 -315 0 -315 8 0 6 75 116 166 245 169 238 258 363 387
546 40 56 73 102 75 103 1 0 2 -202 2 -450z"/>
<path d="M1321 1576 c-99 -140 -181 -257 -181 -260 0 -3 83 -6 185 -6 l185 0
1 203 c0 111 2 228 2 259 1 32 -1 58 -4 58 -4 0 -88 -114 -188 -254z m99 -101
l0 -75 -50 0 c-27 0 -50 3 -50 7 0 7 92 143 97 143 2 0 3 -34 3 -75z"/>
</g>
</svg>
