<?xml version="1.0" standalone="no"?>
<!DOCTYPE svg PUBLIC "-//W3C//DTD SVG 20010904//EN"
 "http://www.w3.org/TR/2001/REC-SVG-20010904/DTD/svg10.dtd">
<svg version="1.0" xmlns="http://www.w3.org/2000/svg"
 width="769.000000pt" height="769.000000pt" viewBox="0 0 769.000000 769.000000"
 preserveAspectRatio="xMidYMid meet">
<metadata>
Created by potrace 1.14, written by Peter Selinger 2001-2017
</metadata>
<g transform="translate(0.000000,769.000000) scale(0.100000,-0.100000)"
fill="#000000" stroke="none">
<path d="M0 3845 l0 -3845 3845 0 3845 0 0 3845 0 3845 -3845 0 -3845 0 0
-3845z m4159 1969 c107 -35 208 -102 291 -191 79 -84 123 -157 166 -271 124
-332 68 -755 -132 -1004 -137 -170 -325 -258 -554 -258 -338 0 -595 199 -703
545 -57 182 -62 430 -13 620 68 263 239 467 459 550 97 36 156 45 287 41 93
-3 131 -9 199 -32z m-2229 -74 l0 -70 -87 0 c-84 0 -88 -1 -120 -32 l-33 -32
0 -268 0 -268 400 0 400 0 0 267 0 267 -32 33 c-31 32 -34 33 -120 33 l-88 0
0 70 0 70 315 0 315 0 0 -70 0 -70 -87 0 c-84 0 -88 -1 -120 -32 l-33 -32 0
-640 0 -640 32 -33 c31 -32 34 -33 120 -33 l88 0 0 -65 0 -65 -315 0 -315 0 0
65 0 65 87 0 c84 0 88 1 120 32 l33 32 0 303 0 303 -400 0 -400 0 0 -302 0
-302 32 -33 c31 -32 34 -33 120 -33 l88 0 0 -65 0 -65 -315 0 -315 0 0 65 0
65 87 0 c84 0 88 1 120 32 l33 32 0 640 0 640 -32 33 c-31 32 -34 33 -120 33
l-88 0 0 70 0 70 315 0 315 0 0 -70z m3650 0 l0 -70 -87 0 c-84 0 -88 -1 -120
-32 l-33 -32 0 -487 c0 -267 4 -508 9 -535 26 -137 100 -245 208 -301 81 -43
150 -57 250 -50 193 12 340 141 382 335 7 35 11 217 11 545 l0 491 -32 33
c-31 32 -34 33 -120 33 l-88 0 0 70 0 70 315 0 315 0 0 -70 0 -70 -87 0 c-84
0 -88 -1 -120 -32 l-33 -32 0 -500 c0 -557 -3 -583 -65 -714 -25 -53 -54 -93
-102 -141 -112 -112 -240 -161 -418 -162 -266 -1 -466 145 -551 401 -16 50
-18 105 -22 585 l-3 530 -31 33 c-31 31 -34 32 -120 32 l-88 0 0 70 0 70 315
0 315 0 0 -70z m-3666 -2472 c26 -84 58 -187 71 -228 13 -41 61 -194 106 -339
l83 -264 27 84 c55 166 268 845 275 872 l6 27 269 0 269 0 0 -65 0 -65 -70 0
c-66 0 -72 -2 -110 -36 l-40 -36 0 -636 0 -636 32 -33 c31 -32 35 -33 110 -33
l78 0 0 -70 0 -70 -300 0 -300 0 0 70 0 70 88 0 c87 0 89 1 120 33 l32 33 -2
665 -3 664 -37 3 -37 3 -141 -433 c-78 -238 -151 -464 -164 -503 l-23 -70 -80
-3 -80 -3 -94 288 c-52 158 -126 385 -165 503 l-70 215 -37 3 -37 3 0 -672 0
-673 27 -28 c26 -27 31 -28 120 -28 l93 0 0 -70 0 -70 -305 0 -306 0 3 68 3
67 80 3 c71 3 83 6 107 29 l28 27 0 645 0 645 -27 28 c-23 25 -34 28 -87 28
-103 0 -106 2 -106 76 l0 64 273 0 273 0 48 -152z m2916 -108 l0 -260 -70 0
-70 0 0 162 0 162 -32 33 -32 33 -393 0 -393 0 0 -310 0 -310 202 0 202 0 38
37 38 37 0 93 0 93 60 0 60 0 0 -320 0 -320 -60 0 -60 0 -1 68 c-1 110 -3 120
-34 152 l-29 30 -208 0 -208 0 0 -330 0 -330 407 0 407 0 33 32 33 32 0 163 0
163 70 0 70 0 0 -265 0 -265 -745 0 -745 0 0 70 0 70 133 0 c133 0 133 0 160
28 l27 28 0 644 0 644 -32 33 -32 33 -128 0 -128 0 0 65 0 65 730 0 730 0 0
-260z m1570 195 l0 -65 -227 0 -227 0 -33 -32 -33 -32 0 -645 0 -645 27 -28
27 -28 233 0 233 0 0 -70 0 -70 -600 0 -600 0 0 70 0 70 233 0 233 0 27 28 27
28 0 646 0 646 -35 31 -36 31 -224 0 -225 0 0 65 0 65 600 0 600 0 0 -65z"/>
<path d="M3795 5686 c-209 -52 -358 -215 -427 -469 -20 -71 -23 -105 -22 -252
1 -141 4 -184 22 -250 81 -301 285 -476 552 -478 172 -1 280 42 395 158 125
125 191 293 202 510 23 477 -216 797 -592 794 -44 0 -102 -6 -130 -13z"/>
</g>
</svg>
